<svg width="683" height="683" viewBox="0 0 683 683" fill="none" xmlns="http://www.w3.org/2000/svg">
<path d="M310.773 425.03C309.32 425.165 308.279 425.347 307.234 425.352C295.623 425.374 284.019 425.341 272.408 425.379C269.663 425.39 267.55 424.392 265.861 422.21C255.757 409.135 245.536 396.152 235.545 382.998C233.154 379.844 230.547 378.525 226.579 378.729C220.38 379.045 214.154 378.815 207.686 378.815C207.686 394.27 207.686 409.527 207.686 424.961C195.872 424.961 184.31 424.961 172.695 424.961C172.695 377.619 172.695 330.374 172.695 283C173.467 282.925 174.143 282.796 174.813 282.801C199.031 282.817 223.249 282.635 247.461 282.951C260.509 283.123 272.832 286.362 283.6 294.261C294.792 302.472 300.305 313.626 300.857 327.344C301.238 336.884 299.763 346.033 294.54 354.281C289.633 362.024 282.538 367.103 274.334 370.814C272.961 371.436 271.577 372.042 269.958 372.76C283.611 390.237 297.061 407.468 310.773 425.03ZM207.847 348.634C220.937 348.323 233.829 348.248 246.694 347.556C250.448 347.352 254.443 345.979 257.736 344.102C264.332 340.348 266.059 334.069 264.874 326.834C263.817 320.383 259.581 317.069 253.607 315.53C252.052 315.128 250.459 314.709 248.866 314.634C240.281 314.237 231.695 313.878 223.104 313.642C218.063 313.503 213.011 313.615 207.847 313.615C207.847 325.29 207.847 336.627 207.847 348.634Z" fill="black"/>
<path d="M554.33 394.581C581.063 394.581 607.196 394.581 633.462 394.581C633.462 404.845 633.462 414.959 633.462 425.218C590.587 425.218 547.729 425.218 504.613 425.218C504.613 421.094 504.597 417.035 504.618 412.97C504.629 410.047 504.79 407.124 504.693 404.212C504.613 401.858 505.642 400.11 507.133 398.464C522.422 381.614 537.695 364.759 552.968 347.899C562.669 337.19 572.36 326.475 582.05 315.755C582.597 315.154 583.085 314.5 584.12 313.24C581.932 313.24 580.43 313.24 578.929 313.24C556.395 313.24 533.861 313.24 511.327 313.24C507.401 313.24 507.096 312.972 507.085 309.1C507.063 301.335 507.069 293.564 507.085 285.799C507.09 282.898 507.675 282.324 510.63 282.324C550.85 282.345 591.075 282.383 631.295 282.356C633.339 282.356 633.918 282.973 633.886 284.989C633.811 289.671 633.923 294.358 634.079 299.034C634.25 303.995 632.588 308.263 629.311 311.878C619.75 322.399 610.097 332.84 600.53 343.362C585.739 359.622 570.992 375.919 556.234 392.205C555.692 392.806 555.215 393.471 554.33 394.581Z" fill="black"/>
<path d="M165.123 314.152C137.778 314.152 110.643 314.152 83.3147 314.152C83.3147 322.898 83.3147 331.527 83.3147 340.38C107.5 340.38 131.686 340.38 156.033 340.38C156.033 350.784 156.033 360.968 156.033 371.355C131.842 371.355 107.731 371.355 83.3254 371.355C83.3254 389.422 83.3254 407.285 83.3254 425.256C71.6026 425.256 60.1694 425.256 48.5486 425.256C48.5486 378.187 48.5486 331.119 48.5486 283.917C87.4011 283.917 126.189 283.917 165.123 283.917C165.123 293.972 165.123 303.925 165.123 314.152Z" fill="black"/>
<path d="M451.163 425.298C439.15 425.298 427.551 425.298 415.673 425.298C415.673 388.328 415.673 351.406 415.673 314.221C400.223 314.221 385.052 314.221 369.757 314.221C369.757 303.764 369.757 293.569 369.757 283.193C412.139 283.193 454.515 283.193 496.987 283.193C496.987 293.435 496.987 303.571 496.987 313.991C481.773 313.991 466.607 313.991 451.163 313.991C451.163 351.208 451.163 388.135 451.163 425.298Z" fill="black"/>
<path d="M321.879 282.984C333.436 282.984 344.858 282.984 356.458 282.984C356.458 330.384 356.458 377.71 356.458 425.24C345.008 425.24 333.527 425.24 321.879 425.24C321.879 377.935 321.879 330.599 321.879 282.984Z" fill="black"/>
<path d="M424.36 491.817C429.83 499.99 435.155 507.943 440.722 516.255C434.002 516.255 427.727 516.336 421.458 516.169C420.552 516.148 419.426 515.118 418.837 514.255C415.539 509.439 412.316 504.57 409.178 499.652C406.465 495.405 403.638 494.188 399.209 495.732C399.209 502.35 399.209 509.021 399.209 515.869C393.336 515.869 387.631 515.869 381.64 515.869C381.64 514.738 381.64 513.751 381.64 512.764C381.614 493.078 381.587 473.391 381.566 453.71C381.566 452.863 381.603 452.021 381.625 451.174C381.673 449.399 382.606 448.417 384.359 448.46C395.417 448.712 406.513 448.573 417.528 449.409C427.685 450.182 434.248 457.191 435.535 467.342C436.522 475.145 435.45 482.422 429.262 488.058C427.798 489.383 426.124 490.471 424.36 491.817ZM399.29 478.384C402.84 478.384 406.277 478.421 409.709 478.362C411.157 478.336 412.648 478.282 414.042 477.928C416.89 477.215 418.52 474.694 418.477 471.439C418.439 468.5 417.142 466.441 414.412 466.103C409.425 465.492 404.395 465.261 399.29 464.865C399.29 469.573 399.29 473.836 399.29 478.384Z" fill="black"/>
<path d="M364.496 482.524C364.341 500.108 353.412 513.944 336.873 517.29C319.471 520.813 301.206 508.549 298.155 491.088C296.144 479.574 297.511 468.543 305.335 459.341C314.318 448.782 326.041 445.012 339.378 448.54C352.709 452.069 360.866 461.137 363.649 474.748C364.169 477.29 364.223 479.928 364.496 482.524ZM346.714 482.309C346.478 480.384 346.387 478.845 346.081 477.343C344.81 471.08 339.222 465.583 333.243 464.623C326.743 463.577 320.555 466.586 317.321 472.742C313.851 479.344 313.996 486.101 317.68 492.563C321.112 498.59 326.427 501.234 333.371 500.092C339.914 499.014 343.861 494.976 345.593 488.734C346.204 486.54 346.392 484.218 346.714 482.309Z" fill="black"/>
<path d="M163.052 503.991C166.361 499.802 169.686 495.598 173.124 491.244C175.006 492.772 176.738 494.252 178.551 495.625C182.412 498.553 186.541 500.854 191.62 500.559C192.606 500.5 193.781 500.537 194.526 500.022C195.835 499.127 197.722 497.888 197.787 496.708C197.851 495.502 196.258 493.748 194.955 493.035C192.767 491.833 190.241 491.249 187.85 490.428C185.238 489.533 182.594 488.723 180.004 487.769C170.029 484.084 166.184 478.287 166.517 467.557C166.796 458.547 172.432 451.125 181.473 448.744C193.647 445.537 204.377 448.605 213.644 457.073C214.797 458.129 214.802 458.912 213.934 460.151C211.247 463.985 208.689 467.911 205.949 471.986C203.686 470.447 201.599 468.736 199.261 467.524C196.778 466.237 194.086 465.299 191.405 464.478C190.3 464.141 188.788 464.141 187.796 464.645C186.327 465.39 184.412 466.516 184.037 467.862C183.543 469.627 185.318 470.973 187.11 471.573C190.311 472.651 193.539 473.638 196.746 474.7C198.714 475.349 200.704 475.955 202.608 476.764C212.116 480.797 216.39 487.597 215.736 497.507C215.135 506.624 208.995 513.901 199.755 516.438C187.099 519.913 170.448 514.292 163.052 503.991Z" fill="black"/>
<path d="M249.848 496.66C249.848 503.342 249.848 509.616 249.848 516.041C244.077 516.041 238.527 516.041 232.762 516.041C232.698 514.898 232.58 513.847 232.58 512.796C232.542 492.976 232.521 473.155 232.499 453.329C232.499 452.563 232.521 451.796 232.569 451.029C232.671 449.372 233.588 448.428 235.218 448.465C244.968 448.675 254.76 448.433 264.445 449.318C275.889 450.364 282.34 457.266 284.094 468.774C286.126 482.132 278.104 493.946 265.11 496.177C261.141 496.858 256.996 496.531 252.931 496.655C252.03 496.681 251.129 496.66 249.848 496.66ZM250.196 480.454C254.063 480.196 257.736 480.1 261.372 479.666C264.606 479.279 266.493 476.893 266.756 473.445C267.04 469.718 265.721 466.881 262.75 466.312C258.664 465.529 254.47 465.304 250.196 464.827C250.196 470.206 250.196 475.097 250.196 480.454Z" fill="black"/>
<path d="M449.554 465.626C449.554 459.861 449.554 454.498 449.554 448.98C467.186 448.98 484.744 448.98 502.419 448.98C502.419 454.391 502.419 459.743 502.419 465.336C496.601 465.336 490.793 465.336 484.712 465.336C484.712 482.293 484.712 499.009 484.712 515.88C478.797 515.88 473.155 515.88 467.224 515.88C467.224 499.127 467.224 482.492 467.224 465.626C461.207 465.626 455.474 465.626 449.554 465.626Z" fill="black"/>
<path d="M510.409 467.739C510.409 464.43 510.409 461.309 510.409 458.038C547.198 458.038 583.895 458.038 620.752 458.038C620.752 461.304 620.752 464.484 620.752 467.739C583.986 467.739 547.337 467.739 510.409 467.739Z" fill="black"/>
<path d="M158.382 457.882C158.382 461.239 158.382 464.436 158.382 467.76C121.712 467.76 85.1595 467.76 48.4036 467.76C48.4036 464.511 48.4036 461.266 48.4036 457.882C85.0094 457.882 121.561 457.882 158.382 457.882Z" fill="black"/>
<path d="M510.302 484.363C510.302 481.049 510.302 477.783 510.302 474.394C542.103 474.394 573.818 474.394 605.689 474.394C605.689 477.708 605.689 480.963 605.689 484.363C573.882 484.363 542.168 484.363 510.302 484.363Z" fill="black"/>
<path d="M158.398 474.362C158.398 477.772 158.398 480.974 158.398 484.342C126.688 484.342 95.0804 484.342 63.3386 484.342C63.3386 481.054 63.3386 477.789 63.3386 474.362C94.9677 474.362 126.581 474.362 158.398 474.362Z" fill="black"/>
<path d="M379.367 207.552C385.695 218.513 391.798 229.094 398.153 240.104C396.769 240.104 395.879 240.104 394.983 240.104C380.08 240.104 365.172 240.093 350.269 240.109C345.588 240.114 340.901 240.162 336.219 240.264C332.696 240.339 330.164 239.042 328.824 235.61C328.245 234.124 327.344 232.767 326.4 231.003C344.842 231.003 363.049 231.003 381.872 231.003C379.903 227.56 378.429 224.471 376.487 221.709C374.198 218.449 373.779 215.532 376.498 212.336C377.576 211.07 378.241 209.461 379.367 207.552Z" fill="black"/>
<path d="M310.677 207.627C319.997 223.71 329.135 239.487 338.493 255.634C340.531 252.084 342.547 248.872 344.263 245.504C345.684 242.715 347.54 241.251 350.822 241.659C352.854 241.911 354.94 241.707 357.504 241.707C351.138 252.754 344.955 263.474 338.605 274.489C337.624 272.966 336.766 271.738 336.015 270.446C326.464 253.977 316.956 237.487 307.362 221.045C305.566 217.966 305.346 215.248 307.775 212.395C308.88 211.086 309.593 209.44 310.677 207.627Z" fill="black"/>
<path d="M366.298 203.879C356.962 187.764 347.808 171.971 338.444 155.808C336.412 159.363 334.379 162.575 332.701 165.964C331.28 168.834 329.285 170.083 326.1 169.772C324.067 169.574 322.002 169.734 319.487 169.734C325.869 158.65 332.047 147.914 338.364 136.931C338.922 137.794 339.378 138.443 339.769 139.124C349.636 156.119 359.466 173.134 369.398 190.091C371.328 193.389 371.618 196.312 369.001 199.369C367.977 200.565 367.344 202.098 366.298 203.879Z" fill="black"/>
<path d="M354.13 228.627C363.322 212.679 372.283 197.132 381.614 180.942C377.876 180.942 374.621 180.68 371.425 181.007C367.548 181.404 364.856 180.39 363.445 176.524C362.882 174.985 361.842 173.622 360.887 171.96C373.264 171.96 385.347 171.96 397.767 171.96C395.461 175.998 393.31 179.779 391.144 183.554C383.18 197.395 375.195 211.22 367.269 225.088C365.676 227.877 363.579 229.185 360.276 228.681C358.421 228.397 356.49 228.627 354.13 228.627Z" fill="black"/>
<path d="M295.264 230.66C299.399 230.66 303.153 230.799 306.89 230.617C309.861 230.467 311.91 231.373 313.138 234.199C313.948 236.065 315.079 237.792 316.173 239.776C303.775 239.776 291.655 239.776 279.203 239.776C279.771 238.656 280.238 237.637 280.79 236.671C290.32 220.09 299.897 203.535 309.379 186.927C311.234 183.677 313.658 182.095 317.471 182.653C319.096 182.889 320.785 182.691 322.893 182.691C313.599 198.816 304.509 214.599 295.264 230.66Z" fill="black"/>
<path d="M350.87 180.926C332.213 180.926 314.023 180.926 295.324 180.926C297.329 184.423 298.996 187.689 301.007 190.724C302.772 193.389 302.917 195.711 300.938 198.307C299.71 199.916 298.841 201.798 297.608 203.905C291.328 193.051 285.241 182.53 278.983 171.719C279.986 171.66 280.7 171.579 281.418 171.579C301.019 171.547 320.624 171.579 340.225 171.45C344.209 171.424 347.09 172.48 348.457 176.529C348.934 177.945 349.894 179.189 350.87 180.926Z" fill="black"/>
<path d="M510.26 500.5C510.26 497.105 510.26 493.903 510.26 490.562C535.673 490.562 560.98 490.562 586.453 490.562C586.453 493.834 586.453 497.089 586.453 500.5C561.114 500.5 535.802 500.5 510.26 500.5Z" fill="black"/>
<path d="M82.6765 500.559C82.6765 497.094 82.6765 493.893 82.6765 490.557C107.935 490.557 133.096 490.557 158.355 490.557C158.355 493.93 158.355 497.196 158.355 500.559C133.096 500.559 107.983 500.559 82.6765 500.559Z" fill="black"/>
</svg>
